# xmcd
#
# Track frame offsets:
#	150
#	17661
#	41364
#	56322
#	74783
#	96577
#	108819
#	129889
#	147138
#	161796
#	194390
#	208127
#	221938
#	238131
#	262920
#
# Disc length: 3712 seconds
#
# Revision: 0
# Processed by: cddbd v1.4PL0 Copyright (c) Steve Scherf et al.
# Submitted via: audiograbber 1.80
#
DISCID=e00e7e0f
DTITLE=Various Artist - Greatest Hits Of Soul And R&B Disk 4
DYEAR=1900
DGENRE=
TTITLE0=Curtis Mayfield - Superfly
TTITLE1=Gil Scott - Heron and Brian Jackson
TTITLE2=Ripple - I Don't Know What It Is But It Sure Is Funky
TTITLE3=Average White Band - Cut The Cake
TTITLE4=James Brown and The JB's - Honky Tonk
TTITLE5=Sly and The Family Stone - Back On The Right Track
TTITLE6=B.T. Express - If It Don't Turn You On
TTITLE7=Peter Brown - Dance With Me
TTITLE8=Maxine Nightingale - Right Back Where We Started From
TTITLE9=Sharon Brown - I Specialize In Love
TTITLE10=Michael Zager Band - Let's All Chant
TTITLE11=Walter Murphy and The Big Apple Band - A Fith Of Beethoven
TTITLE12=Mighty Clouds Of Joy - Mighty High
TTITLE13=A Taste Of Honey - Boogie Oogie Oogie
TTITLE14=Joe Tex - Ain't Gonna Bump No More (With No Big Fat Woman)
EXTD=
EXTT0=
EXTT1=
EXTT2=
EXTT3=
EXTT4=
EXTT5=
EXTT6=
EXTT7=
EXTT8=
EXTT9=
EXTT10=
EXTT11=
EXTT12=
EXTT13=
EXTT14=
PLAYORDER=
